<svg xmlns="http://www.w3.org/2000/svg" version="1.1" xmlns:xlink="http://www.w3.org/1999/xlink" width="2000" height="610" viewBox="0 0 2000 610"><svg xml:space="preserve" width="2000" height="610" data-version="2" data-id="lg_74OwMaXSwYvr8dOv18" viewBox="0 0 610 610" x="0" y="0"><rect width="100%" height="100%" fill="transparent"></rect><circle r="50" fill="#001f3f" transform="translate(305 305)scale(5.9813)"></circle><path fill="#b2ff14" d="M30.2 347.1v-50.4h11.4l5.93 29.17h.69l5.86-29.17H65.1v50.4h-6.55v-28.98l.25-16.38h-.75l-5.61 28.35h-9.51l-5.67-28.35h-.76l.25 16.38v28.98Z"></path><rect width="34.9" height="50.4" x="-17.45" y="-25.2" fill="none" rx="0" ry="0" transform="translate(48.15 322.4)"></rect><path fill="#b2ff14" d="M97.55 323.47v6.11l-11.34 1.77q-2.65.44-3.94 1.82-1.29 1.39-1.29 3.66 0 2.14 1.61 3.46 1.6 1.33 4.12 1.33 2.77 0 5.07-1.33 2.3-1.32 3.69-3.56 1.39-2.23 1.39-4.94v-9.26q0-3.66-2.21-5.74-2.2-2.08-6.05-2.08-2.71 0-4.85.89-2.14.88-3.5 2.58-1.35 1.7-1.85 4.16h-6.62q.32-4.35 2.49-7.5 2.17-3.15 5.89-4.85 3.72-1.7 8.63-1.7 7.06 0 10.93 3.59 3.88 3.59 3.88 10.21v25.01h-6.74v-3.47h-1.89q-1.52 2.14-3.94 3.28-2.43 1.13-5.96 1.13-3.46 0-6.01-1.35-2.55-1.36-3.97-3.81-1.42-2.46-1.42-5.74 0-4.72 3.03-7.78 3.02-3.05 8.63-3.94Z"></path><rect width="31.82" height="39.75" x="-15.91" y="-19.88" fill="none" rx="0" ry="0" transform="translate(88.19 328.67)"></rect><path fill="#b2ff14" d="M145.93 345.84q0 4.53-1.98 7.87-1.99 3.34-5.67 5.17-3.69 1.82-8.85 1.82-4.79 0-8.38-1.48-3.59-1.48-5.67-4.22-2.08-2.74-2.27-6.45h6.61q1.01 2.83 3.53 4.34 2.52 1.51 6.18 1.51 4.53 0 7.05-2.36 2.52-2.36 2.52-6.64v-4.04h-1.89q-1.26 1.83-3.65 2.9-2.4 1.07-5.17 1.07-4.6 0-8-2.23-3.4-2.24-5.23-6.4-1.82-4.16-1.82-9.76 0-5.74 1.82-9.93 1.83-4.19 5.23-6.45 3.4-2.27 8-2.27 2.84 0 5.23 1.13 2.4 1.14 3.59 3.03H139v-3.15h6.93Zm-25.83-18.9q0 5.73 2.55 8.94 2.56 3.22 7.09 3.22 4.6 0 7.15-3.22 2.55-3.21 2.55-8.94 0-5.74-2.55-8.95-2.55-3.21-7.15-3.21-4.53 0-7.09 3.21-2.55 3.21-2.55 8.95"></path><rect width="32.82" height="52.41" x="-16.41" y="-26.2" fill="none" rx="0" ry="0" transform="translate(130.02 335)"></rect><path fill="#b2ff14" d="M168.99 348.1q-4.72 0-8.16-2.42-3.43-2.43-5.35-6.9-1.92-4.47-1.92-10.58t1.92-10.59q1.92-4.47 5.35-6.9 3.44-2.42 8.16-2.42 3.09 0 5.61 1.2 2.52 1.19 3.71 3.27h1.89v-19.09h6.93v53.43h-6.93v-3.47h-1.89q-1.19 2.02-3.71 3.25-2.52 1.22-5.61 1.22m1.45-6.48q4.79 0 7.4-3.53 2.62-3.53 2.62-9.89 0-6.37-2.62-9.89-2.61-3.53-7.4-3.53-4.73 0-7.34 3.53-2.61 3.52-2.61 9.89 0 6.36 2.61 9.89 2.61 3.53 7.34 3.53"></path><rect width="33.57" height="54.43" x="-16.79" y="-27.21" fill="none" rx="0" ry="0" transform="translate(170.84 321.38)"></rect><path fill="#b2ff14" d="M209.12 293.67h7.69l-1.26 24.57h-5.17Z"></path><rect width="7.69" height="24.57" x="-3.85" y="-12.29" fill="none" rx="0" ry="0" transform="translate(213.47 306.45)"></rect><path fill="#b2ff14" d="M245.54 335.5q.88 2.97 3.21 4.54 2.33 1.58 5.98 1.58 3.78 0 5.8-1.36 2.02-1.35 2.02-3.87 0-1.7-1.64-2.84-1.64-1.13-4.85-1.57l-4.6-.7q-6.18-.94-9.14-3.65-2.96-2.71-2.96-7.56 0-5.48 4.06-8.63 4.07-3.15 11.19-3.15 7.24 0 11.46 3.53 4.22 3.52 4.48 9.82h-6.3q-.89-3.33-3.34-5.1-2.46-1.76-6.43-1.76-3.97 0-6.11 1.35-2.14 1.36-2.14 3.88 0 1.7 1.64 2.83 1.63 1.14 4.85 1.58l4.6.69q6.23.94 9.16 3.65 2.93 2.71 2.93 7.56 0 3.66-1.79 6.3-1.8 2.65-5.07 4.07-3.28 1.41-7.88 1.41-7.06 0-11.12-3.33-4.06-3.34-4.44-9.27Z"></path><rect width="31.44" height="39.81" x="-15.72" y="-19.91" fill="none" rx="0" ry="0" transform="translate(255.33 328.7)"></rect><path fill="#b2ff14" d="M322.58 347.1v-50.4h15q7.62 0 12.03 3.65 4.41 3.65 4.41 10.02 0 3.65-1.92 6.36-1.92 2.71-5.39 3.84v1.01q3.91 1.2 6.05 4.29 2.14 3.08 2.14 7.37 0 6.42-4.63 10.14-4.63 3.72-12.69 3.72Zm7.19-6.68h7.81q4.91 0 7.53-2.05 2.61-2.05 2.61-5.76 0-3.72-2.61-5.77-2.62-2.05-7.53-2.05h-7.81Zm0-21.93h7.81q4.66 0 7.12-1.95 2.45-1.95 2.45-5.61 0-3.65-2.45-5.6-2.46-1.96-7.12-1.96h-7.81Z"></path><rect width="32.32" height="50.4" x="-16.16" y="-25.2" fill="none" rx="0" ry="0" transform="translate(339.24 322.4)"></rect><path fill="#b2ff14" d="M364.42 293.67h18.39v46.94h11.41v6.49h-29.8v-6.49h11.46v-40.45h-11.46Z"></path><rect width="29.8" height="53.43" x="-14.9" y="-26.71" fill="none" rx="0" ry="0" transform="translate(379.82 320.88)"></rect><path fill="#b2ff14" d="M419.6 348.1q-5.22 0-9.07-2.42-3.84-2.43-5.95-6.9-2.11-4.47-2.11-10.58t2.11-10.59q2.11-4.47 5.95-6.9 3.85-2.42 9.07-2.42 5.3 0 9.11 2.42 3.81 2.43 5.92 6.9 2.11 4.48 2.11 10.59 0 6.11-2.11 10.58t-5.92 6.9q-3.81 2.42-9.11 2.42m0-6.48q4.86 0 7.56-3.53 2.71-3.53 2.71-9.89 0-6.37-2.71-9.89-2.7-3.53-7.56-3.53-4.85 0-7.56 3.53-2.7 3.52-2.7 9.89 0 6.36 2.7 9.89 2.71 3.53 7.56 3.53"></path><rect width="34.27" height="39.81" x="-17.14" y="-19.91" fill="none" rx="0" ry="0" transform="translate(420.1 328.7)"></rect><path fill="#b2ff14" d="M476.56 345.84q0 4.53-1.99 7.87-1.98 3.34-5.67 5.17-3.68 1.82-8.85 1.82-4.79 0-8.38-1.48-3.59-1.48-5.67-4.22-2.08-2.74-2.27-6.45h6.62q1.01 2.83 3.53 4.34 2.52 1.51 6.17 1.51 4.54 0 7.06-2.36 2.52-2.36 2.52-6.64v-4.04h-1.89q-1.26 1.83-3.66 2.9-2.39 1.07-5.16 1.07-4.6 0-8-2.23-3.41-2.24-5.23-6.4-1.83-4.16-1.83-9.76 0-5.74 1.83-9.93 1.82-4.19 5.23-6.45 3.4-2.27 8-2.27 2.83 0 5.23 1.13 2.39 1.14 3.59 3.03h1.89v-3.15h6.93Zm-25.83-18.9q0 5.73 2.55 8.94 2.55 3.22 7.09 3.22 4.59 0 7.15-3.22 2.55-3.21 2.55-8.94 0-5.74-2.55-8.95-2.56-3.21-7.15-3.21-4.54 0-7.09 3.21t-2.55 8.95"></path><rect width="32.83" height="52.41" x="-16.41" y="-26.2" fill="none" rx="0" ry="0" transform="translate(460.64 335)"></rect><rect width="42.62" height="78.41" x="-21.31" y="-39.21" fill="none" stroke="#b2ff14" stroke-width="2" rx="20" ry="20" transform="rotate(-90 406.11 -135.36)scale(1.0826)"></rect><rect width="42.62" height="78.41" x="-21.31" y="-39.21" fill="none" stroke="#b2ff14" stroke-width="2" rx="20" ry="20" transform="rotate(-90 434.44 -107.04)scale(1.0826)"></rect><path fill="#b2ff14" d="M515.94 274.41q.24.8.87 1.23.63.42 1.61.42 1.02 0 1.57-.37.54-.36.54-1.04 0-.46-.44-.77-.44-.3-1.31-.42l-1.24-.19q-1.67-.25-2.47-.98-.79-.73-.79-2.04 0-1.48 1.09-2.33 1.1-.85 3.02-.85 1.95 0 3.09.95t1.21 2.65h-1.7q-.24-.9-.9-1.38-.66-.47-1.73-.47-1.08 0-1.65.36-.58.37-.58 1.05 0 .46.44.76.44.31 1.31.43l1.24.19q1.68.25 2.47.98.79.73.79 2.04 0 .99-.48 1.7-.48.72-1.37 1.1-.88.38-2.12.38-1.91 0-3-.9-1.1-.9-1.2-2.5Z"></path><rect width="8.48" height="10.74" x="-4.24" y="-5.37" fill="none" rx="0" ry="0" transform="translate(518.95 272.94)"></rect><path fill="#b2ff14" d="M526.72 267.34h4.96v8.45h3.08v1.75h-8.04v-1.75h3.09v-6.7h-3.09Zm3.89-1.51q-.66 0-1.03-.37-.38-.36-.38-1.01t.38-1.01q.37-.37 1.03-.37.67 0 1.04.37.37.36.37 1.01t-.37 1.01q-.37.37-1.04.37"></path><rect width="8.04" height="14.47" x="-4.02" y="-7.24" fill="none" rx="0" ry="0" transform="translate(531.24 270.8)"></rect><path fill="#b2ff14" d="M538.08 277.54v-10.2h1.87v.76h.51q.39-.49 1-.76t1.34-.27q1.07 0 1.85.47.79.48 1.23 1.35.44.86.44 2.04v6.61h-1.87v-6.1q0-1.28-.57-1.93-.57-.66-1.67-.66-1.11 0-1.69.66-.57.65-.57 1.93v6.1Z"></path><rect width="8.24" height="10.47" x="-4.12" y="-5.24" fill="none" rx="0" ry="0" transform="translate(542.7 272.8)"></rect><path fill="#b2ff14" d="M554.24 277.81q-1.39 0-2.41-.64-1.02-.65-1.58-1.85-.56-1.2-.56-2.83 0-1.67.57-2.88.58-1.22 1.64-1.88 1.07-.66 2.51-.66 1.26 0 2.21.52.95.51 1.5 1.46.54.94.59 2.23H557q-.22-1.17-.91-1.82-.69-.64-1.75-.64-1.34 0-2.07.97-.73.97-.73 2.7 0 1.68.71 2.63.72.94 1.99.94.95 0 1.61-.57.65-.57.91-1.59h1.72q-.09 1.19-.65 2.07-.56.87-1.49 1.36-.92.48-2.1.48"></path><rect width="9.02" height="10.74" x="-4.51" y="-5.37" fill="none" rx="0" ry="0" transform="translate(554.7 272.94)"></rect><path fill="#b2ff14" d="M563 271.4h6.13l-.62.89q0-1.72-.62-2.62-.61-.9-1.78-.9-1.28 0-1.99.94t-.71 2.64q0 1.82.71 2.79t2.04.97q.87 0 1.51-.43.65-.44 1.09-1.27h1.75q-.25 1.06-.86 1.82-.6.77-1.49 1.17-.9.41-2 .41-1.43 0-2.46-.64-1.03-.65-1.57-1.87-.54-1.23-.54-2.95 0-1.63.55-2.81.55-1.18 1.57-1.83 1.02-.64 2.4-.64 1.31 0 2.23.61.91.61 1.41 1.78.49 1.16.49 2.81 0 .19-.01.39l-.02.39H563Z"></path><rect width="8.92" height="10.74" x="-4.46" y="-5.37" fill="none" rx="0" ry="0" transform="translate(566.55 272.94)"></rect><path fill="#b2ff14" d="m522.25 332.08 4.19-3.14q.87-.64 1.27-1.32.41-.69.41-1.48 0-1.01-.57-1.58-.57-.58-1.58-.58-.94 0-1.54.58-.6.59-.84 1.71h-1.65q.06-1.21.61-2.09.54-.88 1.44-1.34.89-.47 1.98-.47 1.17 0 2.04.48.86.47 1.34 1.31.48.84.48 1.98 0 1.17-.6 2.17-.6 1.01-1.82 1.89l-3.7 2.66v.15h5.88v1.6h-7.34Z"></path><rect width="7.89" height="12.24" x="-3.94" y="-6.12" fill="none" rx="0" ry="0" transform="translate(526.38 328.99)"></rect><path fill="#b2ff14" d="M536.35 334.85q-2.19 0-3.28-1.56-1.1-1.56-1.1-4.68 0-3.12 1.1-4.68 1.09-1.56 3.28-1.56 2.19 0 3.29 1.56 1.09 1.56 1.09 4.68 0 3.12-1.09 4.68-1.1 1.56-3.29 1.56m0-1.6q1.38 0 2.03-1.13.64-1.12.64-3.51 0-2.38-.64-3.51-.65-1.12-2.03-1.12t-2.02 1.12q-.65 1.13-.65 3.51 0 2.39.65 3.51.64 1.13 2.02 1.13m-3.16-3.24 6.27-4.74v1.95l-6.27 4.74Z"></path><rect width="8.76" height="12.48" x="-4.38" y="-6.24" fill="none" rx="0" ry="0" transform="translate(536.85 329.11)"></rect><path fill="#b2ff14" d="m543.25 332.08 4.19-3.14q.87-.64 1.27-1.32.41-.69.41-1.48 0-1.01-.57-1.58-.57-.58-1.58-.58-.94 0-1.54.58-.6.59-.84 1.71h-1.65q.06-1.21.61-2.09.54-.88 1.44-1.34.89-.47 1.98-.47 1.17 0 2.04.48.86.47 1.34 1.31.48.84.48 1.98 0 1.17-.6 2.17-.6 1.01-1.82 1.89l-3.7 2.66v.15h5.88v1.6h-7.34Z"></path><rect width="7.89" height="12.24" x="-3.94" y="-6.12" fill="none" rx="0" ry="0" transform="translate(547.38 328.99)"></rect><path fill="#b2ff14" d="M553.89 322.61h7.3v1.61h-6.27l.68-.63v3.72h.45q.28-.32.79-.5t1.08-.18q1.02 0 1.81.51.79.5 1.24 1.4.45.9.45 2.1 0 1.23-.5 2.18-.51.95-1.39 1.49-.89.54-2.04.54-1.73 0-2.78-.91-1.06-.92-1.24-2.54h1.66q.24.89.82 1.37.58.48 1.51.48.69 0 1.19-.32.5-.33.78-.92.28-.59.28-1.37 0-.78-.27-1.34-.27-.55-.76-.85-.49-.3-1.18-.3-.72 0-1.25.32t-.8.95h-1.56Z"></path><rect width="7.95" height="12.24" x="-3.98" y="-6.12" fill="none" rx="0" ry="0" transform="translate(557.95 329.23)"></rect></svg></svg>